<?xml version="1.0" standalone="no"?>
<!DOCTYPE svg PUBLIC "-//W3C//DTD SVG 20010904//EN"
 "http://www.w3.org/TR/2001/REC-SVG-20010904/DTD/svg10.dtd">
<svg version="1.0" xmlns="http://www.w3.org/2000/svg"
 width="512.000000pt" height="512.000000pt" viewBox="0 0 512.000000 512.000000"
 preserveAspectRatio="xMidYMid meet">
<metadata>
Created by potrace 1.11, written by Peter Selinger 2001-2013
</metadata>
<g transform="translate(0.000000,512.000000) scale(0.100000,-0.100000)"
fill="#000000" stroke="none">
<path d="M1207 5114 c-1 -1 -29 -4 -62 -8 -128 -13 -302 -65 -426 -127 -145
-72 -328 -220 -430 -349 -148 -185 -247 -422 -275 -655 -4 -33 -8 -667 -8
-1410 -2 -1487 -2 -1469 60 -1667 114 -362 391 -662 742 -807 64 -26 142 -51
247 -78 17 -4 687 -9 1490 -10 1420 -3 1462 -2 1550 17 256 56 469 172 650
354 153 155 249 308 315 505 62 185 60 120 60 1684 0 1259 -2 1437 -16 1505
-86 422 -365 769 -757 941 -89 39 -244 84 -337 97 -36 5 -2797 13 -2803 8z
m2763 -414 c388 -62 697 -383 746 -776 8 -66 8 -2675 0 -2739 -14 -110 -38
-187 -87 -288 -122 -249 -367 -435 -634 -482 -22 -4 -51 -9 -65 -12 -36 -7
-1234 -8 -1246 -1 -5 4 -9 59 -9 123 l0 118 30 2 c219 18 464 104 660 233 39
25 72 48 75 52 3 3 25 21 50 41 260 209 447 530 509 874 17 98 19 151 18 498
l-2 389 -33 29 c-60 53 -148 31 -170 -44 -6 -18 -10 -171 -10 -357 0 -350 -3
-406 -27 -522 -94 -454 -448 -825 -902 -943 -680 -177 -1375 260 -1517 955
-24 120 -25 137 -26 514 l0 358 -34 34 c-57 57 -141 42 -171 -31 -11 -25 -13
-112 -11 -416 2 -211 7 -400 10 -419 23 -122 32 -155 61 -245 173 -528 637
-920 1170 -991 28 -4 57 -8 65 -10 8 -1 20 -3 26 -3 15 -1 16 -228 1 -238 -14
-9 -1142 -8 -1235 1 -90 9 -224 47 -300 85 -254 129 -421 344 -481 621 -20 93
-20 118 -20 1445 0 1154 2 1361 15 1427 66 342 316 608 659 702 l90 24 1365 1
c894 1 1387 -3 1430 -9z"/>
<path d="M2436 4233 c-265 -38 -502 -205 -629 -443 -45 -84 -67 -147 -89 -255
-13 -62 -17 -1471 -5 -1565 18 -144 93 -312 193 -434 99 -122 264 -228 429
-277 93 -28 308 -34 410 -12 312 66 554 292 652 610 l27 88 1 765 c0 421 -4
789 -8 818 -18 117 -84 272 -157 367 -196 259 -503 385 -824 338z"/>
<path d="M3873 4196 c-92 -30 -167 -99 -211 -194 -56 -122 -23 -282 77 -375
76 -71 130 -92 236 -92 78 0 98 4 145 27 96 47 159 123 185 224 55 211 -98
415 -315 421 -43 2 -93 -3 -117 -11z"/>
</g>
</svg>
